<?xml version="1.0" encoding="UTF-8" standalone="no"?>
<!DOCTYPE svg PUBLIC "-//W3C//DTD SVG 1.1//EN"
 "http://www.w3.org/Graphics/SVG/1.1/DTD/svg11.dtd">
<!-- Generated by graphviz version 2.49.3 (20211027.1534)
 -->
<!-- Pages: 1 -->
<svg width="2762pt" height="758pt"
 viewBox="0.00 0.00 2762.00 757.50" xmlns="http://www.w3.org/2000/svg" xmlns:xlink="http://www.w3.org/1999/xlink">
<g id="graph0" class="graph" transform="scale(1 1) rotate(0) translate(4 753.5)">
<polygon fill="white" stroke="transparent" points="-4,4 -4,-753.5 2758,-753.5 2758,4 -4,4"/>
<!-- Persoon -->
<g id="node1" class="node">
<title>Persoon</title>
<polygon fill="none" stroke="black" points="1216.5,-555.5 1216.5,-583.5 1339.5,-583.5 1339.5,-555.5 1216.5,-555.5"/>
<text text-anchor="start" x="1246" y="-566.7" font-family="Helvetica,sans-Serif" font-weight="bold" font-size="16.00">Persoon</text>
<polygon fill="none" stroke="black" points="1216.5,-530.5 1216.5,-555.5 1339.5,-555.5 1339.5,-530.5 1216.5,-530.5"/>
<text text-anchor="start" x="1221.5" y="-540.3" font-family="Helvetica,sans-Serif" text-decoration="underline" font-size="14.00">id</text>
<polygon fill="none" stroke="black" points="1216.5,-505.5 1216.5,-530.5 1339.5,-530.5 1339.5,-505.5 1216.5,-505.5"/>
<text text-anchor="start" x="1221.5" y="-514.3" font-family="Helvetica,sans-Serif" font-size="14.00">voornaam</text>
<polygon fill="none" stroke="black" points="1216.5,-480.5 1216.5,-505.5 1339.5,-505.5 1339.5,-480.5 1216.5,-480.5"/>
<text text-anchor="start" x="1221.5" y="-489.3" font-family="Helvetica,sans-Serif" font-size="14.00">achternaam</text>
<polygon fill="none" stroke="black" points="1216.5,-455.5 1216.5,-480.5 1339.5,-480.5 1339.5,-455.5 1216.5,-455.5"/>
<text text-anchor="start" x="1221.5" y="-464.3" font-family="Helvetica,sans-Serif" font-size="14.00">telefoonnummer</text>
<polygon fill="none" stroke="black" points="1216.5,-430.5 1216.5,-455.5 1339.5,-455.5 1339.5,-430.5 1216.5,-430.5"/>
<text text-anchor="start" x="1221.5" y="-440.3" font-family="Helvetica,sans-Serif" font-style="italic" font-size="14.00">adresId</text>
<text text-anchor="start" x="1267.5" y="-440.3" font-family="Helvetica,sans-Serif" font-size="14.00"> [optioneel]</text>
</g>
<!-- Adres -->
<g id="node2" class="node">
<title>Adres</title>
<polygon fill="none" stroke="black" points="1507.5,-304.5 1507.5,-332.5 1614.5,-332.5 1614.5,-304.5 1507.5,-304.5"/>
<text text-anchor="start" x="1538" y="-315.7" font-family="Helvetica,sans-Serif" font-weight="bold" font-size="16.00">Adres</text>
<polygon fill="none" stroke="black" points="1507.5,-279.5 1507.5,-304.5 1614.5,-304.5 1614.5,-279.5 1507.5,-279.5"/>
<text text-anchor="start" x="1512.5" y="-289.3" font-family="Helvetica,sans-Serif" text-decoration="underline" font-size="14.00">id</text>
<polygon fill="none" stroke="black" points="1507.5,-254.5 1507.5,-279.5 1614.5,-279.5 1614.5,-254.5 1507.5,-254.5"/>
<text text-anchor="start" x="1512.5" y="-263.3" font-family="Helvetica,sans-Serif" font-size="14.00">straat</text>
<polygon fill="none" stroke="black" points="1507.5,-229.5 1507.5,-254.5 1614.5,-254.5 1614.5,-229.5 1507.5,-229.5"/>
<text text-anchor="start" x="1512.5" y="-238.3" font-family="Helvetica,sans-Serif" font-size="14.00">nummer</text>
<polygon fill="none" stroke="black" points="1507.5,-204.5 1507.5,-229.5 1614.5,-229.5 1614.5,-204.5 1507.5,-204.5"/>
<text text-anchor="start" x="1512.5" y="-214.3" font-family="Helvetica,sans-Serif" font-size="14.00">bus</text>
<text text-anchor="start" x="1534.5" y="-214.3" font-family="Helvetica,sans-Serif" font-size="14.00"> [optioneel]</text>
<polygon fill="none" stroke="black" points="1507.5,-179.5 1507.5,-204.5 1614.5,-204.5 1614.5,-179.5 1507.5,-179.5"/>
<text text-anchor="start" x="1512.5" y="-189.3" font-family="Helvetica,sans-Serif" font-style="italic" font-size="14.00">gemeenteNaam</text>
</g>
<!-- Persoon&#45;&#45;Adres -->
<g id="edge1" class="edge">
<title>Persoon&#45;&#45;Adres</title>
<path fill="none" stroke="#7f7f7f" stroke-dasharray="5,2" d="M1347.24,-446.1C1393.55,-404.74 1454.07,-350.67 1498.63,-310.87"/>
<text text-anchor="start" x="1473.63" y="-299.67" font-family="Times,serif" font-size="14.00">0..N</text>
<text text-anchor="start" x="1347.24" y="-434.9" font-family="Times,serif" font-size="14.00">1..N</text>
</g>
<!-- Leiding -->
<g id="node4" class="node">
<title>Leiding</title>
<polygon fill="none" stroke="black" points="1782,-627.5 1782,-655.5 2064,-655.5 2064,-627.5 1782,-627.5"/>
<text text-anchor="start" x="1894" y="-638.7" font-family="Helvetica,sans-Serif" font-weight="bold" font-size="16.00">Leiding</text>
<polygon fill="none" stroke="black" points="1782,-602.5 1782,-627.5 2064,-627.5 2064,-602.5 1782,-602.5"/>
<text text-anchor="start" x="1787" y="-612.3" font-family="Helvetica,sans-Serif" font-style="italic" text-decoration="underline" font-size="14.00">persoon_id</text>
<polygon fill="none" stroke="black" points="1782,-577.5 1782,-602.5 2064,-602.5 2064,-577.5 1782,-577.5"/>
<text text-anchor="start" x="1787" y="-587.3" font-family="Helvetica,sans-Serif" font-style="italic" font-size="14.00">afdeling_naam</text>
<text text-anchor="start" x="1875" y="-587.3" font-family="Helvetica,sans-Serif" font-size="14.00"> [mut. excl. subafdeling_naam]</text>
<polygon fill="none" stroke="black" points="1782,-552.5 1782,-577.5 2064,-577.5 2064,-552.5 1782,-552.5"/>
<text text-anchor="start" x="1787" y="-562.3" font-family="Helvetica,sans-Serif" font-style="italic" font-size="14.00">subafdeling_naam</text>
<text text-anchor="start" x="1897" y="-562.3" font-family="Helvetica,sans-Serif" font-size="14.00"> [mut. excl. afdeling_naam]</text>
<polygon fill="none" stroke="black" points="1782,-527.5 1782,-552.5 2064,-552.5 2064,-527.5 1782,-527.5"/>
<text text-anchor="start" x="1787" y="-537.3" font-family="Helvetica,sans-Serif" font-style="italic" font-size="14.00">werkjaar</text>
</g>
<!-- Persoon&#45;&#45;Leiding -->
<g id="edge4" class="edge">
<title>Persoon&#45;&#45;Leiding</title>
<path fill="none" stroke="#7f7f7f" stroke-dasharray="5,2" d="M1347.08,-505.54C1431.11,-504.3 1577.52,-505.88 1701,-526.5 1724.87,-530.49 1749.79,-536.22 1773.95,-542.65"/>
<text text-anchor="start" x="1742.95" y="-531.45" font-family="Times,serif" font-size="14.00">{0,1}</text>
<text text-anchor="start" x="1347.08" y="-494.34" font-family="Times,serif" font-size="14.00">1</text>
</g>
<!-- Hoofdleiding -->
<g id="node5" class="node">
<title>Hoofdleiding</title>
<polygon fill="none" stroke="black" points="1428.5,-614.5 1428.5,-642.5 1693.5,-642.5 1693.5,-614.5 1428.5,-614.5"/>
<text text-anchor="start" x="1511.5" y="-625.7" font-family="Helvetica,sans-Serif" font-weight="bold" font-size="16.00">Hoofdleiding</text>
<polygon fill="none" stroke="black" points="1428.5,-589.5 1428.5,-614.5 1693.5,-614.5 1693.5,-589.5 1428.5,-589.5"/>
<text text-anchor="start" x="1433.5" y="-599.3" font-family="Helvetica,sans-Serif" font-style="italic" text-decoration="underline" font-size="14.00">persoon_id</text>
<polygon fill="none" stroke="black" points="1428.5,-564.5 1428.5,-589.5 1693.5,-589.5 1693.5,-564.5 1428.5,-564.5"/>
<text text-anchor="start" x="1433.5" y="-574.3" font-family="Helvetica,sans-Serif" font-size="14.00">specifiekeVerantwoordelijkheid</text>
<text text-anchor="start" x="1621.5" y="-574.3" font-family="Helvetica,sans-Serif" font-size="14.00"> [optioneel]</text>
<polygon fill="none" stroke="black" points="1428.5,-539.5 1428.5,-564.5 1693.5,-564.5 1693.5,-539.5 1428.5,-539.5"/>
<text text-anchor="start" x="1433.5" y="-549.3" font-family="Helvetica,sans-Serif" font-style="italic" font-size="14.00">werkjaar</text>
</g>
<!-- Persoon&#45;&#45;Hoofdleiding -->
<g id="edge3" class="edge">
<title>Persoon&#45;&#45;Hoofdleiding</title>
<path fill="none" stroke="#7f7f7f" stroke-dasharray="5,2" d="M1347.24,-528.05C1369.34,-534.65 1394.67,-542.23 1419.96,-549.79"/>
<text text-anchor="start" x="1388.96" y="-538.59" font-family="Times,serif" font-size="14.00">{0,1}</text>
<text text-anchor="start" x="1347.24" y="-516.85" font-family="Times,serif" font-size="14.00">1</text>
</g>
<!-- Gemeente -->
<g id="node3" class="node">
<title>Gemeente</title>
<polygon fill="none" stroke="black" points="1870,-267.5 1870,-295.5 1977,-295.5 1977,-267.5 1870,-267.5"/>
<text text-anchor="start" x="1884.5" y="-278.7" font-family="Helvetica,sans-Serif" font-weight="bold" font-size="16.00">Gemeente</text>
<polygon fill="none" stroke="black" points="1870,-242.5 1870,-267.5 1977,-267.5 1977,-242.5 1870,-242.5"/>
<text text-anchor="start" x="1875" y="-252.3" font-family="Helvetica,sans-Serif" text-decoration="underline" font-size="14.00">gemeenteNaam</text>
<polygon fill="none" stroke="black" points="1870,-217.5 1870,-242.5 1977,-242.5 1977,-217.5 1870,-217.5"/>
<text text-anchor="start" x="1875" y="-226.3" font-family="Helvetica,sans-Serif" font-size="14.00">postcode</text>
</g>
<!-- Adres&#45;&#45;Gemeente -->
<g id="edge2" class="edge">
<title>Adres&#45;&#45;Gemeente</title>
<path fill="none" stroke="#7f7f7f" stroke-dasharray="5,2" d="M1622.25,-256.5C1688.77,-256.5 1794.81,-256.5 1861.31,-256.5"/>
<text text-anchor="start" x="1854.31" y="-245.3" font-family="Times,serif" font-size="14.00">1</text>
<text text-anchor="start" x="1622.25" y="-245.3" font-family="Times,serif" font-size="14.00">0..N</text>
</g>
<!-- Afdeling -->
<g id="node6" class="node">
<title>Afdeling</title>
<polygon fill="none" stroke="black" points="2373,-624.5 2373,-652.5 2547,-652.5 2547,-624.5 2373,-624.5"/>
<text text-anchor="start" x="2428" y="-635.7" font-family="Helvetica,sans-Serif" font-weight="bold" font-size="16.00">Afdeling</text>
<polygon fill="none" stroke="black" points="2373,-599.5 2373,-624.5 2547,-624.5 2547,-599.5 2373,-599.5"/>
<text text-anchor="start" x="2378" y="-609.3" font-family="Helvetica,sans-Serif" text-decoration="underline" font-size="14.00">naam</text>
<polygon fill="none" stroke="black" points="2373,-574.5 2373,-599.5 2547,-599.5 2547,-574.5 2373,-574.5"/>
<text text-anchor="start" x="2378" y="-583.3" font-family="Helvetica,sans-Serif" font-size="14.00">kleur</text>
<polygon fill="none" stroke="black" points="2373,-549.5 2373,-574.5 2547,-574.5 2547,-549.5 2373,-549.5"/>
<text text-anchor="start" x="2378" y="-559.3" font-family="Helvetica,sans-Serif" font-style="italic" font-size="14.00">mascotte_naam</text>
<text text-anchor="start" x="2475" y="-559.3" font-family="Helvetica,sans-Serif" font-size="14.00"> [optioneel]</text>
<polygon fill="none" stroke="black" points="2373,-524.5 2373,-549.5 2547,-549.5 2547,-524.5 2373,-524.5"/>
<text text-anchor="start" x="2378" y="-533.3" font-family="Helvetica,sans-Serif" font-size="14.00">leeftijden</text>
<polygon fill="none" stroke="black" points="2373,-499.5 2373,-524.5 2547,-524.5 2547,-499.5 2373,-499.5"/>
<text text-anchor="start" x="2378" y="-509.3" font-family="Helvetica,sans-Serif" font-size="14.00">uitleg</text>
<text text-anchor="start" x="2411" y="-509.3" font-family="Helvetica,sans-Serif" font-size="14.00"> [optioneel]</text>
</g>
<!-- Leiding&#45;&#45;Afdeling -->
<g id="edge5" class="edge">
<title>Leiding&#45;&#45;Afdeling</title>
<path fill="none" stroke="#7f7f7f" stroke-dasharray="5,2" d="M2072.37,-605.5C2139.53,-609.69 2219.86,-611.72 2292,-605.5 2315.75,-603.45 2341.19,-599.8 2364.87,-595.76"/>
<text text-anchor="start" x="2333.87" y="-584.56" font-family="Times,serif" font-size="14.00">{0,1}</text>
<text text-anchor="start" x="2072.37" y="-594.3" font-family="Times,serif" font-size="14.00">0..N</text>
</g>
<!-- Subafdeling -->
<g id="node7" class="node">
<title>Subafdeling</title>
<polygon fill="none" stroke="black" points="2153.5,-564.5 2153.5,-592.5 2284.5,-592.5 2284.5,-564.5 2153.5,-564.5"/>
<text text-anchor="start" x="2172.5" y="-575.7" font-family="Helvetica,sans-Serif" font-weight="bold" font-size="16.00">Subafdeling</text>
<polygon fill="none" stroke="black" points="2153.5,-539.5 2153.5,-564.5 2284.5,-564.5 2284.5,-539.5 2153.5,-539.5"/>
<text text-anchor="start" x="2158.5" y="-549.3" font-family="Helvetica,sans-Serif" text-decoration="underline" font-size="14.00">naam</text>
<polygon fill="none" stroke="black" points="2153.5,-514.5 2153.5,-539.5 2284.5,-539.5 2284.5,-514.5 2153.5,-514.5"/>
<text text-anchor="start" x="2158.5" y="-524.3" font-family="Helvetica,sans-Serif" font-style="italic" font-size="14.00">hoofdafdeling_naam</text>
<polygon fill="none" stroke="black" points="2153.5,-489.5 2153.5,-514.5 2284.5,-514.5 2284.5,-489.5 2153.5,-489.5"/>
<text text-anchor="start" x="2158.5" y="-499.3" font-family="Helvetica,sans-Serif" font-size="14.00">geslacht</text>
<text text-anchor="start" x="2209.5" y="-499.3" font-family="Helvetica,sans-Serif" font-size="14.00"> [optioneel]</text>
<polygon fill="none" stroke="black" points="2153.5,-464.5 2153.5,-489.5 2284.5,-489.5 2284.5,-464.5 2153.5,-464.5"/>
<text text-anchor="start" x="2158.5" y="-474.3" font-family="Helvetica,sans-Serif" font-size="14.00">uitleg</text>
<text text-anchor="start" x="2191.5" y="-474.3" font-family="Helvetica,sans-Serif" font-size="14.00"> [optioneel]</text>
</g>
<!-- Leiding&#45;&#45;Subafdeling -->
<g id="edge6" class="edge">
<title>Leiding&#45;&#45;Subafdeling</title>
<path fill="none" stroke="#7f7f7f" stroke-dasharray="5,2" d="M2072.04,-559.72C2097.4,-554.28 2122.71,-548.85 2144.93,-544.08"/>
<text text-anchor="start" x="2119.93" y="-532.88" font-family="Times,serif" font-size="14.00">0..N</text>
<text text-anchor="start" x="2072.04" y="-548.52" font-family="Times,serif" font-size="14.00">0..N</text>
</g>
<!-- Hoofdleiding&#45;&#45;Leiding -->
<g id="edge21" class="edge">
<title>Hoofdleiding&#45;&#45;Leiding</title>
<path fill="none" stroke="#7f7f7f" stroke-dasharray="5,2" d="M1701.14,-591.5C1725,-591.5 1749.86,-591.5 1773.94,-591.5"/>
<text text-anchor="start" x="1748.94" y="-580.3" font-family="Times,serif" font-size="14.00">1..N</text>
<text text-anchor="start" x="1701.14" y="-580.3" font-family="Times,serif" font-size="14.00">1</text>
</g>
<!-- Mascotte -->
<g id="node8" class="node">
<title>Mascotte</title>
<polygon fill="none" stroke="black" points="2636,-599.5 2636,-627.5 2746,-627.5 2746,-599.5 2636,-599.5"/>
<text text-anchor="start" x="2655.5" y="-610.7" font-family="Helvetica,sans-Serif" font-weight="bold" font-size="16.00">Mascotte</text>
<polygon fill="none" stroke="black" points="2636,-574.5 2636,-599.5 2746,-599.5 2746,-574.5 2636,-574.5"/>
<text text-anchor="start" x="2641" y="-584.3" font-family="Helvetica,sans-Serif" text-decoration="underline" font-size="14.00">naam</text>
<polygon fill="none" stroke="black" points="2636,-549.5 2636,-574.5 2746,-574.5 2746,-549.5 2636,-549.5"/>
<text text-anchor="start" x="2641" y="-558.3" font-family="Helvetica,sans-Serif" font-size="14.00">afbeeldingUrl</text>
<polygon fill="none" stroke="black" points="2636,-524.5 2636,-549.5 2746,-549.5 2746,-524.5 2636,-524.5"/>
<text text-anchor="start" x="2641" y="-534.3" font-family="Helvetica,sans-Serif" font-size="14.00">uitleg</text>
<text text-anchor="start" x="2674" y="-534.3" font-family="Helvetica,sans-Serif" font-size="14.00"> [optioneel]</text>
</g>
<!-- Afdeling&#45;&#45;Mascotte -->
<g id="edge8" class="edge">
<title>Afdeling&#45;&#45;Mascotte</title>
<path fill="none" stroke="#7f7f7f" stroke-dasharray="5,2" d="M2555.13,-576.5C2579.68,-576.5 2605.52,-576.5 2627.94,-576.5"/>
<text text-anchor="start" x="2620.94" y="-565.3" font-family="Times,serif" font-size="14.00">1</text>
<text text-anchor="start" x="2555.13" y="-565.3" font-family="Times,serif" font-size="14.00">0..N</text>
</g>
<!-- Subafdeling&#45;&#45;Afdeling -->
<g id="edge7" class="edge">
<title>Subafdeling&#45;&#45;Afdeling</title>
<path fill="none" stroke="#7f7f7f" stroke-dasharray="5,2" d="M2292.01,-543.03C2314.86,-547.61 2340.45,-552.74 2364.6,-557.58"/>
<text text-anchor="start" x="2357.6" y="-546.38" font-family="Times,serif" font-size="14.00">1</text>
<text text-anchor="start" x="2292.01" y="-531.83" font-family="Times,serif" font-size="14.00">0..N</text>
</g>
<!-- HomepageArticle -->
<g id="node9" class="node">
<title>HomepageArticle</title>
<polygon fill="none" stroke="black" points="8.5,-593.5 8.5,-621.5 151.5,-621.5 151.5,-593.5 8.5,-593.5"/>
<text text-anchor="start" x="13.5" y="-604.7" font-family="Helvetica,sans-Serif" font-weight="bold" font-size="16.00">HomepageArticle</text>
<polygon fill="none" stroke="black" points="8.5,-568.5 8.5,-593.5 151.5,-593.5 151.5,-568.5 8.5,-568.5"/>
<text text-anchor="start" x="13.5" y="-578.3" font-family="Helvetica,sans-Serif" text-decoration="underline" font-size="14.00">id</text>
<polygon fill="none" stroke="black" points="8.5,-543.5 8.5,-568.5 151.5,-568.5 151.5,-543.5 8.5,-543.5"/>
<text text-anchor="start" x="13.5" y="-552.3" font-family="Helvetica,sans-Serif" font-size="14.00">titel</text>
<polygon fill="none" stroke="black" points="8.5,-518.5 8.5,-543.5 151.5,-543.5 151.5,-518.5 8.5,-518.5"/>
<text text-anchor="start" x="13.5" y="-527.3" font-family="Helvetica,sans-Serif" font-size="14.00">inhoud</text>
<polygon fill="none" stroke="black" points="8.5,-493.5 8.5,-518.5 151.5,-518.5 151.5,-493.5 8.5,-493.5"/>
<text text-anchor="start" x="13.5" y="-502.3" font-family="Helvetica,sans-Serif" font-size="14.00">afbeeldingUrl</text>
</g>
<!-- NewsPageArticle -->
<g id="node10" class="node">
<title>NewsPageArticle</title>
<polygon fill="none" stroke="black" points="682.5,-689.5 682.5,-717.5 889.5,-717.5 889.5,-689.5 682.5,-689.5"/>
<text text-anchor="start" x="720.5" y="-700.7" font-family="Helvetica,sans-Serif" font-weight="bold" font-size="16.00">NewsPageArticle</text>
<polygon fill="none" stroke="black" points="682.5,-664.5 682.5,-689.5 889.5,-689.5 889.5,-664.5 682.5,-664.5"/>
<text text-anchor="start" x="687.5" y="-674.3" font-family="Helvetica,sans-Serif" text-decoration="underline" font-size="14.00">id</text>
<polygon fill="none" stroke="black" points="682.5,-639.5 682.5,-664.5 889.5,-664.5 889.5,-639.5 682.5,-639.5"/>
<text text-anchor="start" x="687.5" y="-648.3" font-family="Helvetica,sans-Serif" font-size="14.00">titel</text>
<polygon fill="none" stroke="black" points="682.5,-614.5 682.5,-639.5 889.5,-639.5 889.5,-614.5 682.5,-614.5"/>
<text text-anchor="start" x="687.5" y="-623.3" font-family="Helvetica,sans-Serif" font-size="14.00">inhoud</text>
<polygon fill="none" stroke="black" points="682.5,-589.5 682.5,-614.5 889.5,-614.5 889.5,-589.5 682.5,-589.5"/>
<text text-anchor="start" x="687.5" y="-598.3" font-family="Helvetica,sans-Serif" font-size="14.00">publicatieDatum</text>
<polygon fill="none" stroke="black" points="682.5,-564.5 682.5,-589.5 889.5,-589.5 889.5,-564.5 682.5,-564.5"/>
<text text-anchor="start" x="687.5" y="-574.3" font-family="Helvetica,sans-Serif" font-style="italic" font-size="14.00">redacteur_id</text>
<text text-anchor="start" x="763.5" y="-574.3" font-family="Helvetica,sans-Serif" font-size="14.00"> [optioneel]</text>
<polygon fill="none" stroke="black" points="682.5,-539.5 682.5,-564.5 889.5,-564.5 889.5,-539.5 682.5,-539.5"/>
<text text-anchor="start" x="687.5" y="-549.3" font-family="Helvetica,sans-Serif" font-size="14.00">afbeeldingOfVideoUrl</text>
<text text-anchor="start" x="817.5" y="-549.3" font-family="Helvetica,sans-Serif" font-size="14.00"> [optioneel]</text>
</g>
<!-- Redacteur -->
<g id="node11" class="node">
<title>Redacteur</title>
<polygon fill="none" stroke="black" points="1008.5,-595.5 1008.5,-623.5 1097.5,-623.5 1097.5,-595.5 1008.5,-595.5"/>
<text text-anchor="start" x="1013.5" y="-606.7" font-family="Helvetica,sans-Serif" font-weight="bold" font-size="16.00">Redacteur</text>
<polygon fill="none" stroke="black" points="1008.5,-570.5 1008.5,-595.5 1097.5,-595.5 1097.5,-570.5 1008.5,-570.5"/>
<text text-anchor="start" x="1013.5" y="-580.3" font-family="Helvetica,sans-Serif" font-style="italic" text-decoration="underline" font-size="14.00">persoon_id</text>
</g>
<!-- NewsPageArticle&#45;&#45;Redacteur -->
<g id="edge9" class="edge">
<title>NewsPageArticle&#45;&#45;Redacteur</title>
<path fill="none" stroke="#7f7f7f" stroke-dasharray="5,2" d="M897.35,-615.53C932.95,-611.37 970.69,-606.95 999.92,-603.53"/>
<text text-anchor="start" x="974.92" y="-592.33" font-family="Times,serif" font-size="14.00">0..N</text>
<text text-anchor="start" x="897.35" y="-604.33" font-family="Times,serif" font-size="14.00">1..N</text>
</g>
<!-- Redacteur&#45;&#45;Persoon -->
<g id="edge10" class="edge">
<title>Redacteur&#45;&#45;Persoon</title>
<path fill="none" stroke="#7f7f7f" stroke-dasharray="5,2" d="M1105.22,-576.63C1135.71,-564.32 1174.68,-548.59 1207.73,-535.25"/>
<text text-anchor="start" x="1200.73" y="-524.05" font-family="Times,serif" font-size="14.00">1</text>
<text text-anchor="start" x="1105.22" y="-565.43" font-family="Times,serif" font-size="14.00">{0,1}</text>
</g>
<!-- VolwassenBegeleider -->
<g id="node12" class="node">
<title>VolwassenBegeleider</title>
<polygon fill="none" stroke="black" points="454,-520.5 454,-548.5 630,-548.5 630,-520.5 454,-520.5"/>
<text text-anchor="start" x="459" y="-531.7" font-family="Helvetica,sans-Serif" font-weight="bold" font-size="16.00">VolwassenBegeleider</text>
<polygon fill="none" stroke="black" points="454,-495.5 454,-520.5 630,-520.5 630,-495.5 454,-495.5"/>
<text text-anchor="start" x="459" y="-505.3" font-family="Helvetica,sans-Serif" font-style="italic" text-decoration="underline" font-size="14.00">persoon_id</text>
<polygon fill="none" stroke="black" points="454,-470.5 454,-495.5 630,-495.5 630,-470.5 454,-470.5"/>
<text text-anchor="start" x="459" y="-480.3" font-family="Helvetica,sans-Serif" font-style="italic" font-size="14.00">werkjaar_id</text>
</g>
<!-- VolwassenBegeleider&#45;&#45;Persoon -->
<g id="edge11" class="edge">
<title>VolwassenBegeleider&#45;&#45;Persoon</title>
<path fill="none" stroke="#7f7f7f" stroke-dasharray="5,2" d="M638.36,-508.74C717.32,-508.17 832.45,-507.5 933,-507.5 933,-507.5 933,-507.5 1053.5,-507.5 1105.18,-507.5 1163.61,-507.5 1207.69,-507.5"/>
<text text-anchor="start" x="1200.69" y="-496.3" font-family="Times,serif" font-size="14.00">1</text>
<text text-anchor="start" x="638.36" y="-497.54" font-family="Times,serif" font-size="14.00">0..N</text>
</g>
<!-- Locatie -->
<g id="node13" class="node">
<title>Locatie</title>
<polygon fill="none" stroke="black" points="685.5,-128.5 685.5,-156.5 886.5,-156.5 886.5,-128.5 685.5,-128.5"/>
<text text-anchor="start" x="757.5" y="-139.7" font-family="Helvetica,sans-Serif" font-weight="bold" font-size="16.00">Locatie</text>
<polygon fill="none" stroke="black" points="685.5,-103.5 685.5,-128.5 886.5,-128.5 886.5,-103.5 685.5,-103.5"/>
<text text-anchor="start" x="690.5" y="-113.3" font-family="Helvetica,sans-Serif" text-decoration="underline" font-size="14.00">id</text>
<polygon fill="none" stroke="black" points="685.5,-78.5 685.5,-103.5 886.5,-103.5 886.5,-78.5 685.5,-78.5"/>
<text text-anchor="start" x="690.5" y="-87.3" font-family="Helvetica,sans-Serif" font-size="14.00">functie</text>
<polygon fill="none" stroke="black" points="685.5,-53.5 685.5,-78.5 886.5,-78.5 886.5,-53.5 685.5,-53.5"/>
<text text-anchor="start" x="690.5" y="-63.3" font-family="Helvetica,sans-Serif" font-size="14.00">openingsuren</text>
<text text-anchor="start" x="772.5" y="-63.3" font-family="Helvetica,sans-Serif" font-size="14.00"> [optioneel]</text>
<polygon fill="none" stroke="black" points="685.5,-28.5 685.5,-53.5 886.5,-53.5 886.5,-28.5 685.5,-28.5"/>
<text text-anchor="start" x="690.5" y="-38.3" font-family="Helvetica,sans-Serif" font-style="italic" font-size="14.00">adres_id</text>
<polygon fill="none" stroke="black" points="685.5,-3.5 685.5,-28.5 886.5,-28.5 886.5,-3.5 685.5,-3.5"/>
<text text-anchor="start" x="690.5" y="-13.3" font-family="Helvetica,sans-Serif" font-style="italic" font-size="14.00">verantwoordelijke_id</text>
<text text-anchor="start" x="814.5" y="-13.3" font-family="Helvetica,sans-Serif" font-size="14.00"> [optioneel]</text>
</g>
<!-- Locatie&#45;&#45;Adres -->
<g id="edge13" class="edge">
<title>Locatie&#45;&#45;Adres</title>
<path fill="none" stroke="#7f7f7f" stroke-dasharray="5,2" d="M894.13,-85.81C942.26,-87.76 999.71,-89.5 1051.5,-89.5 1051.5,-89.5 1051.5,-89.5 1278.5,-89.5 1363.77,-89.5 1445.74,-147.03 1498.92,-194.55"/>
<text text-anchor="start" x="1467.92" y="-183.35" font-family="Times,serif" font-size="14.00">{0,1}</text>
<text text-anchor="start" x="894.13" y="-74.61" font-family="Times,serif" font-size="14.00">0..N</text>
</g>
<!-- Verantwoordelijke -->
<g id="node14" class="node">
<title>Verantwoordelijke</title>
<polygon fill="none" stroke="black" points="978.5,-236.5 978.5,-264.5 1127.5,-264.5 1127.5,-236.5 978.5,-236.5"/>
<text text-anchor="start" x="983.5" y="-247.7" font-family="Helvetica,sans-Serif" font-weight="bold" font-size="16.00">Verantwoordelijke</text>
<polygon fill="none" stroke="black" points="978.5,-211.5 978.5,-236.5 1127.5,-236.5 1127.5,-211.5 978.5,-211.5"/>
<text text-anchor="start" x="983.5" y="-221.3" font-family="Helvetica,sans-Serif" font-style="italic" text-decoration="underline" font-size="14.00">persoon_id</text>
</g>
<!-- Locatie&#45;&#45;Verantwoordelijke -->
<g id="edge14" class="edge">
<title>Locatie&#45;&#45;Verantwoordelijke</title>
<path fill="none" stroke="#7f7f7f" stroke-dasharray="5,2" d="M894.29,-144.76C930.83,-166.55 969.97,-189.89 1000.05,-207.83"/>
<text text-anchor="start" x="975.05" y="-196.63" font-family="Times,serif" font-size="14.00">0..N</text>
<text text-anchor="start" x="894.29" y="-133.56" font-family="Times,serif" font-size="14.00">1..N</text>
</g>
<!-- Verantwoordelijke&#45;&#45;Persoon -->
<g id="edge12" class="edge">
<title>Verantwoordelijke&#45;&#45;Persoon</title>
<path fill="none" stroke="#7f7f7f" stroke-dasharray="5,2" d="M1078.86,-269.1C1110.43,-307.17 1165.54,-373.65 1209.56,-426.75"/>
<text text-anchor="start" x="1202.56" y="-415.55" font-family="Times,serif" font-size="14.00">1</text>
<text text-anchor="start" x="1053.86" y="-272.9" font-family="Times,serif" font-size="14.00">0..N</text>
</g>
<!-- Evenement -->
<g id="node15" class="node">
<title>Evenement</title>
<polygon fill="none" stroke="black" points="682.5,-446.5 682.5,-474.5 889.5,-474.5 889.5,-446.5 682.5,-446.5"/>
<text text-anchor="start" x="743" y="-457.7" font-family="Helvetica,sans-Serif" font-weight="bold" font-size="16.00">Evenement</text>
<polygon fill="none" stroke="black" points="682.5,-421.5 682.5,-446.5 889.5,-446.5 889.5,-421.5 682.5,-421.5"/>
<text text-anchor="start" x="687.5" y="-431.3" font-family="Helvetica,sans-Serif" text-decoration="underline" font-size="14.00">id</text>
<polygon fill="none" stroke="black" points="682.5,-396.5 682.5,-421.5 889.5,-421.5 889.5,-396.5 682.5,-396.5"/>
<text text-anchor="start" x="687.5" y="-405.3" font-family="Helvetica,sans-Serif" font-size="14.00">naam</text>
<polygon fill="none" stroke="black" points="682.5,-371.5 682.5,-396.5 889.5,-396.5 889.5,-371.5 682.5,-371.5"/>
<text text-anchor="start" x="687.5" y="-380.3" font-family="Helvetica,sans-Serif" font-size="14.00">adres_id</text>
<polygon fill="none" stroke="black" points="682.5,-346.5 682.5,-371.5 889.5,-371.5 889.5,-346.5 682.5,-346.5"/>
<text text-anchor="start" x="687.5" y="-356.3" font-family="Helvetica,sans-Serif" font-size="14.00">beschrijving</text>
<text text-anchor="start" x="760.5" y="-356.3" font-family="Helvetica,sans-Serif" font-size="14.00"> [optioneel]</text>
<polygon fill="none" stroke="black" points="682.5,-321.5 682.5,-346.5 889.5,-346.5 889.5,-321.5 682.5,-321.5"/>
<text text-anchor="start" x="687.5" y="-331.3" font-family="Helvetica,sans-Serif" font-size="14.00">voorWie</text>
<text text-anchor="start" x="737.5" y="-331.3" font-family="Helvetica,sans-Serif" font-size="14.00"> [optioneel]</text>
<polygon fill="none" stroke="black" points="682.5,-296.5 682.5,-321.5 889.5,-321.5 889.5,-296.5 682.5,-296.5"/>
<text text-anchor="start" x="687.5" y="-305.3" font-family="Helvetica,sans-Serif" font-size="14.00">datumEnTijdStart</text>
<polygon fill="none" stroke="black" points="682.5,-271.5 682.5,-296.5 889.5,-296.5 889.5,-271.5 682.5,-271.5"/>
<text text-anchor="start" x="687.5" y="-281.3" font-family="Helvetica,sans-Serif" font-size="14.00">datumEnTijdEinde</text>
<text text-anchor="start" x="799.5" y="-281.3" font-family="Helvetica,sans-Serif" font-size="14.00"> [optioneel]</text>
<polygon fill="none" stroke="black" points="682.5,-246.5 682.5,-271.5 889.5,-271.5 889.5,-246.5 682.5,-246.5"/>
<text text-anchor="start" x="687.5" y="-256.3" font-family="Helvetica,sans-Serif" font-size="14.00">afbeeldingOfVideoUrl</text>
<text text-anchor="start" x="817.5" y="-256.3" font-family="Helvetica,sans-Serif" font-size="14.00"> [optioneel]</text>
<polygon fill="none" stroke="black" points="682.5,-221.5 682.5,-246.5 889.5,-246.5 889.5,-221.5 682.5,-221.5"/>
<text text-anchor="start" x="687.5" y="-231.3" font-family="Helvetica,sans-Serif" font-style="italic" font-size="14.00">verantwoordelijke_id</text>
<text text-anchor="start" x="811.5" y="-231.3" font-family="Helvetica,sans-Serif" font-size="14.00"> [optioneel]</text>
</g>
<!-- Evenement&#45;&#45;Verantwoordelijke -->
<g id="edge15" class="edge">
<title>Evenement&#45;&#45;Verantwoordelijke</title>
<path fill="none" stroke="#7f7f7f" stroke-dasharray="5,2" d="M897.35,-302.49C924.44,-291.24 952.77,-279.48 977.64,-269.16"/>
<text text-anchor="start" x="952.64" y="-272.96" font-family="Times,serif" font-size="14.00">0..N</text>
<text text-anchor="start" x="897.35" y="-291.29" font-family="Times,serif" font-size="14.00">0..N</text>
</g>
<!-- Kalender -->
<g id="node16" class="node">
<title>Kalender</title>
<polygon fill="none" stroke="black" points="274,-296.5 274,-324.5 369,-324.5 369,-296.5 274,-296.5"/>
<text text-anchor="start" x="286.5" y="-307.7" font-family="Helvetica,sans-Serif" font-weight="bold" font-size="16.00">Kalender</text>
<polygon fill="none" stroke="black" points="274,-271.5 274,-296.5 369,-296.5 369,-271.5 274,-271.5"/>
<text text-anchor="start" x="279" y="-281.3" font-family="Helvetica,sans-Serif" text-decoration="underline" font-size="14.00">id</text>
<polygon fill="none" stroke="black" points="274,-246.5 274,-271.5 369,-271.5 369,-246.5 274,-246.5"/>
<text text-anchor="start" x="279" y="-256.3" font-family="Helvetica,sans-Serif" font-style="italic" font-size="14.00">werkjaar_id</text>
<polygon fill="none" stroke="black" points="274,-221.5 274,-246.5 369,-246.5 369,-221.5 274,-221.5"/>
<text text-anchor="start" x="279" y="-231.3" font-family="Helvetica,sans-Serif" font-style="italic" font-size="14.00">evenement_id</text>
</g>
<!-- Kalender&#45;&#45;Evenement -->
<g id="edge16" class="edge">
<title>Kalender&#45;&#45;Evenement</title>
<path fill="none" stroke="#7f7f7f" stroke-dasharray="5,2" d="M376.87,-282.4C449.73,-294.21 580.11,-315.36 673.81,-330.55"/>
<text text-anchor="start" x="648.81" y="-319.35" font-family="Times,serif" font-size="14.00">0..N</text>
<text text-anchor="start" x="376.87" y="-271.2" font-family="Times,serif" font-size="14.00">1</text>
</g>
<!-- Fotos -->
<g id="node17" class="node">
<title>Fotos</title>
<polygon fill="none" stroke="black" points="240,-451.5 240,-479.5 402,-479.5 402,-451.5 240,-451.5"/>
<text text-anchor="start" x="299" y="-462.7" font-family="Helvetica,sans-Serif" font-weight="bold" font-size="16.00">Fotos</text>
<polygon fill="none" stroke="black" points="240,-426.5 240,-451.5 402,-451.5 402,-426.5 240,-426.5"/>
<text text-anchor="start" x="245" y="-436.3" font-family="Helvetica,sans-Serif" text-decoration="underline" font-size="14.00">id</text>
<polygon fill="none" stroke="black" points="240,-401.5 240,-426.5 402,-426.5 402,-401.5 240,-401.5"/>
<text text-anchor="start" x="245" y="-411.3" font-family="Helvetica,sans-Serif" font-style="italic" font-size="14.00">werkjaar_id</text>
<polygon fill="none" stroke="black" points="240,-376.5 240,-401.5 402,-401.5 402,-376.5 240,-376.5"/>
<text text-anchor="start" x="245" y="-385.3" font-family="Helvetica,sans-Serif" font-size="14.00">googleFotosUrl</text>
<polygon fill="none" stroke="black" points="240,-351.5 240,-376.5 402,-376.5 402,-351.5 240,-351.5"/>
<text text-anchor="start" x="245" y="-361.3" font-family="Helvetica,sans-Serif" font-style="italic" font-size="14.00">evenement_id</text>
<text text-anchor="start" x="330" y="-361.3" font-family="Helvetica,sans-Serif" font-size="14.00"> [optioneel]</text>
</g>
<!-- Fotos&#45;&#45;Evenement -->
<g id="edge17" class="edge">
<title>Fotos&#45;&#45;Evenement</title>
<path fill="none" stroke="#7f7f7f" stroke-dasharray="5,2" d="M410.08,-402.74C485.04,-391.88 593.08,-376.23 673.86,-364.53"/>
<text text-anchor="start" x="648.86" y="-353.33" font-family="Times,serif" font-size="14.00">1..N</text>
<text text-anchor="start" x="410.08" y="-391.54" font-family="Times,serif" font-size="14.00">0..N</text>
</g>
<!-- Werkjaar -->
<g id="node18" class="node">
<title>Werkjaar</title>
<polygon fill="none" stroke="black" points="8.5,-438.5 8.5,-466.5 151.5,-466.5 151.5,-438.5 8.5,-438.5"/>
<text text-anchor="start" x="46" y="-449.7" font-family="Helvetica,sans-Serif" font-weight="bold" font-size="16.00">Werkjaar</text>
<polygon fill="none" stroke="black" points="8.5,-413.5 8.5,-438.5 151.5,-438.5 151.5,-413.5 8.5,-413.5"/>
<text text-anchor="start" x="13.5" y="-423.3" font-family="Helvetica,sans-Serif" font-style="italic" font-size="14.00">id</text>
<polygon fill="none" stroke="black" points="8.5,-388.5 8.5,-413.5 151.5,-413.5 151.5,-388.5 8.5,-388.5"/>
<text text-anchor="start" x="13.5" y="-397.3" font-family="Helvetica,sans-Serif" font-size="14.00">startDatum</text>
<polygon fill="none" stroke="black" points="8.5,-363.5 8.5,-388.5 151.5,-388.5 151.5,-363.5 8.5,-363.5"/>
<text text-anchor="start" x="13.5" y="-373.3" font-family="Helvetica,sans-Serif" font-size="14.00">eindDatum</text>
<text text-anchor="start" x="79.5" y="-373.3" font-family="Helvetica,sans-Serif" font-size="14.00"> [optioneel]</text>
</g>
<!-- Werkjaar&#45;&#45;Leiding -->
<g id="edge20" class="edge">
<title>Werkjaar&#45;&#45;Leiding</title>
<path fill="none" stroke="#7f7f7f" stroke-dasharray="5,2" d="M150.63,-471.35C153.54,-474.35 156.35,-477.41 159,-480.5 249.74,-586.23 180.67,-749.5 320,-749.5 320,-749.5 320,-749.5 1561.5,-749.5 1657,-749.5 1755.66,-702.42 1825.58,-659.65"/>
<text text-anchor="start" x="1800.58" y="-663.45" font-family="Times,serif" font-size="14.00">1..N</text>
<text text-anchor="start" x="143.63" y="-475.15" font-family="Times,serif" font-size="14.00">1</text>
</g>
<!-- Werkjaar&#45;&#45;VolwassenBegeleider -->
<g id="edge23" class="edge">
<title>Werkjaar&#45;&#45;VolwassenBegeleider</title>
<path fill="none" stroke="#7f7f7f" stroke-dasharray="5,2" d="M159.38,-463.35C182.07,-474.94 207.35,-485.88 232,-492.5 301.92,-511.29 383.84,-515.01 445.76,-514.32"/>
<text text-anchor="start" x="438.76" y="-503.12" font-family="Times,serif" font-size="14.00">1</text>
<text text-anchor="start" x="159.38" y="-452.15" font-family="Times,serif" font-size="14.00">1</text>
</g>
<!-- Werkjaar&#45;&#45;Verantwoordelijke -->
<g id="edge22" class="edge">
<title>Werkjaar&#45;&#45;Verantwoordelijke</title>
<path fill="none" stroke="#7f7f7f" stroke-dasharray="5,2" d="M106.59,-359.96C131.9,-312.29 174.85,-245.6 232,-208.5 265.56,-186.71 279.99,-189.5 320,-189.5 320,-189.5 320,-189.5 786.5,-189.5 848.73,-189.5 917.82,-202.73 969.85,-215.43"/>
<text text-anchor="start" x="944.85" y="-204.23" font-family="Times,serif" font-size="14.00">0..N</text>
<text text-anchor="start" x="99.59" y="-348.76" font-family="Times,serif" font-size="14.00">1</text>
</g>
<!-- Werkjaar&#45;&#45;Kalender -->
<g id="edge19" class="edge">
<title>Werkjaar&#45;&#45;Kalender</title>
<path fill="none" stroke="#7f7f7f" stroke-dasharray="5,2" d="M159.25,-368.81C194.02,-348.19 234.03,-324.47 265.43,-305.85"/>
<text text-anchor="start" x="258.43" y="-294.65" font-family="Times,serif" font-size="14.00">1</text>
<text text-anchor="start" x="159.25" y="-357.61" font-family="Times,serif" font-size="14.00">1</text>
</g>
<!-- Werkjaar&#45;&#45;Fotos -->
<g id="edge18" class="edge">
<title>Werkjaar&#45;&#45;Fotos</title>
<path fill="none" stroke="#7f7f7f" stroke-dasharray="5,2" d="M159.25,-415.5C182.43,-415.5 207.94,-415.5 231.67,-415.5"/>
<text text-anchor="start" x="206.67" y="-404.3" font-family="Times,serif" font-size="14.00">0..N</text>
<text text-anchor="start" x="159.25" y="-404.3" font-family="Times,serif" font-size="14.00">1</text>
</g>
</g>
</svg>
